<?xml version="1.0" standalone="no"?>
<!DOCTYPE svg PUBLIC "-//W3C//DTD SVG 20010904//EN"
 "http://www.w3.org/TR/2001/REC-SVG-20010904/DTD/svg10.dtd">
<svg version="1.0" xmlns="http://www.w3.org/2000/svg"
 width="360.000000pt" height="360.000000pt" viewBox="0 0 360.000000 360.000000"
 preserveAspectRatio="xMidYMid meet">

<g transform="translate(0.000000,360.000000) scale(0.100000,-0.100000)"
fill="#000000" stroke="none">
<path d="M420 3587 c-13 -7 -30 -24 -37 -37 -10 -20 -12 -381 -10 -1762 l2
-1737 23 -23 23 -23 1379 0 1379 0 23 23 23 23 0 1464 0 1465 -308 307 -307
308 -1083 2 c-855 2 -1087 0 -1107 -10z m2068 -214 l-3 -58 -972 -3 -973 -2 0
60 0 60 975 0 976 0 -3 -57z m442 -340 c0 -2 -61 -3 -135 -3 l-135 0 0 137 0
138 135 -135 c74 -74 135 -136 135 -137z m-440 -8 c0 -110 1 -117 25 -140 l24
-25 261 0 260 0 0 -1345 0 -1345 -1260 0 -1260 0 0 1485 0 1485 975 0 975 0 0
-115z"/>
<path d="M1895 2540 c-22 -24 -325 -852 -325 -887 0 -14 13 -38 30 -55 26 -25
36 -29 63 -24 18 4 40 14 49 24 14 14 270 698 314 840 14 46 8 76 -21 105 -23
24 -87 22 -110 -3z"/>
<path d="M1196 2250 c-120 -60 -227 -116 -237 -126 -20 -18 -26 -73 -10 -102
5 -9 117 -70 249 -136 255 -126 269 -129 312 -86 25 25 26 80 3 109 -10 12
-81 52 -158 90 l-140 68 141 71 c78 39 149 78 158 87 9 10 16 33 16 55 0 47
-36 80 -84 79 -18 0 -121 -45 -250 -109z"/>
<path d="M2080 2338 c-29 -31 -34 -61 -17 -95 12 -22 48 -45 164 -102 l148
-74 -140 -67 c-77 -37 -149 -77 -159 -89 -25 -28 -26 -84 -2 -110 40 -44 59
-39 314 84 245 120 262 132 262 186 0 44 -26 62 -251 174 -247 123 -281 133
-319 93z"/>
<path d="M860 660 l0 -240 65 0 65 0 0 95 0 95 75 0 75 0 0 -95 0 -95 65 0 65
0 0 240 0 240 -65 0 -65 0 0 -90 0 -90 -75 0 -75 0 0 90 0 90 -65 0 -65 0 0
-240z"/>
<path d="M1342 848 l3 -53 58 0 57 0 0 -187 0 -188 65 0 65 0 0 185 0 185 60
0 60 0 0 55 0 55 -186 0 -185 0 3 -52z"/>
<path d="M1780 660 l0 -240 55 0 c37 0 55 4 55 13 1 6 1 82 1 167 0 85 2 151
4 145 3 -5 24 -80 48 -165 l44 -155 64 -3 65 -3 43 158 c24 87 46 161 50 165
3 4 5 -67 3 -157 l-3 -165 60 0 61 0 0 240 0 240 -87 0 -88 0 -49 -171 c-57
-198 -45 -201 -112 34 l-39 137 -87 0 -88 0 0 -240z"/>
<path d="M2431 660 l1 -240 159 0 159 0 0 50 0 50 -90 0 -90 0 0 190 0 190
-70 0 -71 0 2 -240z"/>
</g>
</svg>
